<?xml version="1.0" encoding="utf-8"?>
<!-- Generator: Adobe Illustrator 29.7.1, SVG Export Plug-In . SVG Version: 9.03 Build 0)  -->
<svg version="1.0" id="Livello_1" xmlns="http://www.w3.org/2000/svg" xmlns:xlink="http://www.w3.org/1999/xlink" x="0px" y="0px"
	 viewBox="0 0 558 606" style="enable-background:new 0 0 558 606;" xml:space="preserve">
<g transform="translate(0.000000,606.000000) scale(0.100000,-0.100000)">
	<path d="M3598.82,4857.41l-1023-152v-782v-783h1040h1040v935c0,884-1,935-17,934C4628.82,5009.41,4160.82,4940.41,3598.82,4857.41z
		"/>
	<path d="M1660.82,4562.41c-445-63-811-116-813-117c-1-1,1-293,4-649l7-646h809h808v765c0,421-1,764-2,764
		C2471.82,4678.41,2106.82,4626.41,1660.82,4562.41z"/>
	<path d="M845.82,2400.41c0-609,1-660,17-660c9,0,371-45,803-100c433-55,791-100,794-100s6,7,6,15s-7,15-15,15s-29,12-46,28
		c-23,21-34,42-44,92c-8,36-14,79-15,97c0,42,35,83,80,92l35,7l3,108c2,86,0,112-13,125c-27,31-29,77-6,116c20,35,21,47,21,416v379
		h-87c-49,0-358,7-688,15s-655,15-722,15h-123V2400.41z"/>
	<path d="M2591.82,2999.41c-3-17-6-166-6-330c0-293,0-299,20-299c11,0,51-21,90-46l69-46l46,28c45,28,46,30,40,69
		c-28,191-18,209,133,235c113,20,140,0,167-130c9-41,19-78,23-81c4-4,30-10,58-14l51-6l44,65c47,70,94,102,132,91
		c42-13,148-88,163-116c19-37,18-57-6-102c-11-20-18-37-16-37s26,9,53,21c60,26,124,21,158-11c13-12,43-69,66-127l41-104l85,3l84,3
		l40,95c45,107,67,136,119,151c33,10,46,8,125-24c103-43,129-58,152-94c26-40,20-88-26-192c-22-52-41-96-41-97c0-2,25-29,55-61
		l56-57l42,14l42,15l3,608l2,607h-1029h-1028L2591.82,2999.41z"/>
	<path d="M2942.82,2558.41c-66-14-74-33-53-135c9-44,14-87,10-97c-9-24-107-86-136-86c-13,0-53,20-89,45c-35,25-73,45-85,45
		c-35,0-114-105-114-152c0-22,13-36,75-79c40-29,76-58,79-65c9-22-22-148-39-160c-9-7-46-17-83-24c-124-21-128-25-108-130
		c19-103,24-107,141-91c74,11,98,11,109,1c25-20,76-106,76-126c0-11-21-50-46-87c-60-90-58-108,21-164c76-54,98-53,142,7
		c19,25,46,60,61,79l28,35l72-13c39-7,76-19,83-27c6-8,17-40,24-72c13-65,14-65,100-27l53,23l4,73c3,41,3,79,1,85s-49,30-104,54
		c-103,44-149,82-149,123c0,15-16,34-47,57c-89,65-129,198-89,294c50,119,197,185,319,142c85-31,151-116,163-212c12-91,51-96,129-19
		l55,55l-20,50c-11,28-29,73-40,100c-25,62-25,107-2,141c9,15,39,58,65,97c34,49,47,76,43,90c-10,29-125,104-155,100
		c-16-2-37-19-58-48c-19-25-46-60-61-79l-28-34l-67,13c-37,8-74,22-83,31c-9,10-23,53-31,96s-19,84-25,90
		C3071.82,2572.41,3011.82,2572.41,2942.82,2558.41z"/>
	<path d="M3625.82,2245.41c-89-37-120-62-120-99c0-13,18-67,40-121c22-54,40-107,40-117c0-21-111-135-144-148c-16-6-50,4-130,37
		c-114,47-142,49-173,14c-21-25-82-170-83-198c0-37,41-70,135-109c120-49,125-56,125-160s-13-121-125-164c-153-60-160-72-109-203
		c19-50,42-99,51-109c24-27,73-22,170,17c123,50,132,48,208-32c36-38,65-76,65-85c0-9-18-59-40-109c-40-93-48-135-30-168
		c12-24,169-91,213-91s56,15,103,125c53,128,49,125,164,125c116,0,115,1,166-126c35-88,70-134,102-134c9,0,59,17,110,37
		c81,32,97,42,110,70c15,32,14,36-26,135c-23,57-42,114-42,127c0,16,21,45,64,87c77,78,88,79,215,24c50-22,101-40,111-40
		c34,0,69,43,105,129c39,93,40,131,2,156c-12,7-60,30-107,50c-121,52-120,51-120,160c0,57,5,97,13,108c6,9,57,35,111,57
		c115,46,136,62,136,101c0,41-69,208-90,219c-32,17-67,11-170-30c-75-30-105-38-122-31c-37,14-138,126-138,154c0,13,18,65,40,116
		c45,103,49,140,20,166c-31,28-169,85-205,85c-42,0-57-19-106-131c-22-52-47-100-54-108c-11-11-37-14-106-12c-51,1-100,6-109,11
		s-34,53-55,107c-41,105-70,143-107,143C3720.82,2279.41,3672.82,2264.41,3625.82,2245.41z M4109.82,1639.41c143-53,236-213,207-357
		c-22-108-83-191-183-244c-36-19-58-23-138-23c-83,0-101,3-145,27c-68,35-122,92-154,158c-38,79-37,192,1,270
		C3774.82,1626.41,3951.82,1699.41,4109.82,1639.41z"/>
	<path d="M3907.82,1606.41c-59-19-112-62-112-90c0-12-21-55-46-94c-25-40-44-77-42-84c3-8,102-27,279-53c310-47,287-50,288,46
		c2,155-110,274-268,285C3974.82,1618.41,3931.82,1614.41,3907.82,1606.41z"/>
	<path d="M3055.82,2049.41c-148-45-197-228-90-340c20-22,41-39,47-39c5,0,27,39,48,86c55,124,111,150,214,104l44-20l-5,44
		C3300.82,1999.41,3169.82,2083.41,3055.82,2049.41z"/>
	<path d="M2577.82,2000.41c0-14,2-19,5-12c2,6,2,18,0,25C2579.82,2019.41,2577.82,2014.41,2577.82,2000.41z"/>
	<path d="M2588.82,1593.41c-8-3-13-24-13-54c0-47,1-49,28-49c15,0,37-3,49-6c36-10,37,19,3,70
		C2625.82,1598.41,2615.82,1604.41,2588.82,1593.41z"/>
</g>
</svg>
